<?xml version="1.0" encoding="UTF-8" standalone="no"?>
<!DOCTYPE svg PUBLIC "-//W3C//DTD SVG 1.1//EN"
 "http://www.w3.org/Graphics/SVG/1.1/DTD/svg11.dtd">
<!-- Generated by graphviz version 2.38.0 (20140413.2041)
 -->
<!-- Title: controllers_diagram Pages: 1 -->
<svg width="700pt" height="687pt"
 viewBox="0.00 0.00 700.38 687.00" xmlns="http://www.w3.org/2000/svg" xmlns:xlink="http://www.w3.org/1999/xlink">
<g id="graph0" class="graph" transform="scale(1 1) rotate(0) translate(242.269 360.5)">
<title>controllers_diagram</title>
<polygon fill="none" stroke="none" points="-242.269,326.5 -242.269,-360.5 458.107,-360.5 458.107,326.5 -242.269,326.5"/>
<!-- _diagram_info -->
<g id="node1" class="node"><title>_diagram_info</title>
<text text-anchor="start" x="8.31226" y="144.9" font-family="Times,serif" font-size="13.00">Controllers diagram</text>
<text text-anchor="start" x="8.31226" y="157.9" font-family="Times,serif" font-size="13.00">Date: Feb 01 2016 &#45; 19:57</text>
<text text-anchor="start" x="8.31226" y="170.9" font-family="Times,serif" font-size="13.00">Migration version: 20160131084044</text>
<text text-anchor="start" x="8.31226" y="183.9" font-family="Times,serif" font-size="13.00">Generated by RailRoady 1.4.2</text>
<text text-anchor="start" x="8.31226" y="196.9" font-family="Times,serif" font-size="13.00">http://railroady.prestonlee.com</text>
</g>
<!-- Api::CategoriesController -->
<g id="node2" class="node"><title>Api::CategoriesController</title>
<path fill="none" stroke="black" d="M300.903,50C300.903,50 439.097,50 439.097,50 445.097,50 451.097,44 451.097,38 451.097,38 451.097,-28 451.097,-28 451.097,-34 445.097,-40 439.097,-40 439.097,-40 300.903,-40 300.903,-40 294.903,-40 288.903,-34 288.903,-28 288.903,-28 288.903,38 288.903,38 288.903,44 294.903,50 300.903,50"/>
<text text-anchor="middle" x="370" y="-24.8" font-family="Times,serif" font-size="14.00">Api::CategoriesController</text>
<polyline fill="none" stroke="black" points="288.903,-18 451.097,-18 "/>
<text text-anchor="start" x="296.903" y="-2.8" font-family="Times,serif" font-size="14.00">index</text>
<polyline fill="none" stroke="black" points="288.903,4 451.097,4 "/>
<polyline fill="none" stroke="black" points="288.903,28 451.097,28 "/>
<text text-anchor="start" x="296.903" y="43.2" font-family="Times,serif" font-size="14.00">_layout</text>
</g>
<!-- Api::RegionsController -->
<g id="node3" class="node"><title>Api::RegionsController</title>
<path fill="none" stroke="black" d="M317.893,-205C317.893,-205 442.107,-205 442.107,-205 448.107,-205 454.107,-211 454.107,-217 454.107,-217 454.107,-283 454.107,-283 454.107,-289 448.107,-295 442.107,-295 442.107,-295 317.893,-295 317.893,-295 311.893,-295 305.893,-289 305.893,-283 305.893,-283 305.893,-217 305.893,-217 305.893,-211 311.893,-205 317.893,-205"/>
<text text-anchor="middle" x="380" y="-279.8" font-family="Times,serif" font-size="14.00">Api::RegionsController</text>
<polyline fill="none" stroke="black" points="305.893,-273 454.107,-273 "/>
<text text-anchor="start" x="313.893" y="-257.8" font-family="Times,serif" font-size="14.00">index</text>
<polyline fill="none" stroke="black" points="305.893,-251 454.107,-251 "/>
<polyline fill="none" stroke="black" points="305.893,-227 454.107,-227 "/>
<text text-anchor="start" x="313.893" y="-211.8" font-family="Times,serif" font-size="14.00">_layout</text>
</g>
<!-- Api::ReviewsController -->
<g id="node4" class="node"><title>Api::ReviewsController</title>
<path fill="none" stroke="black" d="M-226.269,237C-226.269,237 -99.731,237 -99.731,237 -93.731,237 -87.731,231 -87.731,225 -87.731,225 -87.731,145 -87.731,145 -87.731,139 -93.731,133 -99.731,133 -99.731,133 -226.269,133 -226.269,133 -232.269,133 -238.269,139 -238.269,145 -238.269,145 -238.269,225 -238.269,225 -238.269,231 -232.269,237 -226.269,237"/>
<text text-anchor="middle" x="-163" y="148.2" font-family="Times,serif" font-size="14.00">Api::ReviewsController</text>
<polyline fill="none" stroke="black" points="-238.269,155 -87.731,155 "/>
<text text-anchor="start" x="-230.269" y="170.2" font-family="Times,serif" font-size="14.00">index</text>
<polyline fill="none" stroke="black" points="-238.269,177 -87.731,177 "/>
<polyline fill="none" stroke="black" points="-238.269,201 -87.731,201 "/>
<text text-anchor="start" x="-230.269" y="216.2" font-family="Times,serif" font-size="14.00">_layout</text>
<text text-anchor="start" x="-230.269" y="230.2" font-family="Times,serif" font-size="14.00">set_store</text>
</g>
<!-- Api::StoresController -->
<g id="node5" class="node"><title>Api::StoresController</title>
<path fill="none" stroke="black" d="M318.338,-69C318.338,-69 431.662,-69 431.662,-69 437.662,-69 443.662,-75 443.662,-81 443.662,-81 443.662,-161 443.662,-161 443.662,-167 437.662,-173 431.662,-173 431.662,-173 318.338,-173 318.338,-173 312.338,-173 306.338,-167 306.338,-161 306.338,-161 306.338,-81 306.338,-81 306.338,-75 312.338,-69 318.338,-69"/>
<text text-anchor="middle" x="375" y="-157.8" font-family="Times,serif" font-size="14.00">Api::StoresController</text>
<polyline fill="none" stroke="black" points="306.338,-151 443.662,-151 "/>
<text text-anchor="start" x="314.338" y="-135.8" font-family="Times,serif" font-size="14.00">index</text>
<text text-anchor="start" x="314.338" y="-121.8" font-family="Times,serif" font-size="14.00">show</text>
<polyline fill="none" stroke="black" points="306.338,-115 443.662,-115 "/>
<polyline fill="none" stroke="black" points="306.338,-91 443.662,-91 "/>
<text text-anchor="start" x="314.338" y="-75.8" font-family="Times,serif" font-size="14.00">_layout</text>
</g>
<!-- ApplicationController -->
<g id="node6" class="node"><title>ApplicationController</title>
<path fill="none" stroke="black" d="M12.1792,322C12.1792,322 127.821,322 127.821,322 133.821,322 139.821,316 139.821,310 139.821,310 139.821,242 139.821,242 139.821,236 133.821,230 127.821,230 127.821,230 12.1792,230 12.1792,230 6.1792,230 0.179199,236 0.179199,242 0.179199,242 0.179199,310 0.179199,310 0.179199,316 6.1792,322 12.1792,322"/>
<text text-anchor="middle" x="70" y="245.2" font-family="Times,serif" font-size="14.00">ApplicationController</text>
<polyline fill="none" stroke="black" points="0.179199,252 139.821,252 "/>
<polyline fill="none" stroke="black" points="0.179199,276 139.821,276 "/>
<polyline fill="none" stroke="black" points="0.179199,300 139.821,300 "/>
<text text-anchor="start" x="8.1792" y="315.2" font-family="Times,serif" font-size="14.00">_layout</text>
</g>
<!-- CommonCodesController -->
<g id="node7" class="node"><title>CommonCodesController</title>
<path fill="none" stroke="black" d="M-73.3311,101C-73.3311,101 63.3311,101 63.3311,101 69.3311,101 75.3311,95 75.3311,89 75.3311,89 75.3311,-89 75.3311,-89 75.3311,-95 69.3311,-101 63.3311,-101 63.3311,-101 -73.3311,-101 -73.3311,-101 -79.3311,-101 -85.3311,-95 -85.3311,-89 -85.3311,-89 -85.3311,89 -85.3311,89 -85.3311,95 -79.3311,101 -73.3311,101"/>
<text text-anchor="middle" x="-5" y="-85.8" font-family="Times,serif" font-size="14.00">CommonCodesController</text>
<polyline fill="none" stroke="black" points="-85.3311,-79 75.3311,-79 "/>
<text text-anchor="start" x="-77.3311" y="-63.8" font-family="Times,serif" font-size="14.00">index</text>
<text text-anchor="start" x="-77.3311" y="-49.8" font-family="Times,serif" font-size="14.00">destroy</text>
<text text-anchor="start" x="-77.3311" y="-35.8" font-family="Times,serif" font-size="14.00">edit</text>
<text text-anchor="start" x="-77.3311" y="-21.8" font-family="Times,serif" font-size="14.00">create</text>
<text text-anchor="start" x="-77.3311" y="-7.8" font-family="Times,serif" font-size="14.00">new</text>
<text text-anchor="start" x="-77.3311" y="6.2" font-family="Times,serif" font-size="14.00">show</text>
<text text-anchor="start" x="-77.3311" y="20.2" font-family="Times,serif" font-size="14.00">update</text>
<polyline fill="none" stroke="black" points="-85.3311,27 75.3311,27 "/>
<polyline fill="none" stroke="black" points="-85.3311,51 75.3311,51 "/>
<text text-anchor="start" x="-77.3311" y="66.2" font-family="Times,serif" font-size="14.00">_layout</text>
<text text-anchor="start" x="-77.3311" y="80.2" font-family="Times,serif" font-size="14.00">common_code_params</text>
<text text-anchor="start" x="-77.3311" y="94.2" font-family="Times,serif" font-size="14.00">set_common_code</text>
</g>
<!-- RegionsController -->
<g id="node8" class="node"><title>RegionsController</title>
<path fill="none" stroke="black" d="M-225.717,84C-225.717,84 -130.283,84 -130.283,84 -124.283,84 -118.283,78 -118.283,72 -118.283,72 -118.283,-106 -118.283,-106 -118.283,-112 -124.283,-118 -130.283,-118 -130.283,-118 -225.717,-118 -225.717,-118 -231.717,-118 -237.717,-112 -237.717,-106 -237.717,-106 -237.717,72 -237.717,72 -237.717,78 -231.717,84 -225.717,84"/>
<text text-anchor="middle" x="-178" y="-102.8" font-family="Times,serif" font-size="14.00">RegionsController</text>
<polyline fill="none" stroke="black" points="-237.717,-96 -118.283,-96 "/>
<text text-anchor="start" x="-229.717" y="-80.8" font-family="Times,serif" font-size="14.00">index</text>
<text text-anchor="start" x="-229.717" y="-66.8" font-family="Times,serif" font-size="14.00">destroy</text>
<text text-anchor="start" x="-229.717" y="-52.8" font-family="Times,serif" font-size="14.00">edit</text>
<text text-anchor="start" x="-229.717" y="-38.8" font-family="Times,serif" font-size="14.00">create</text>
<text text-anchor="start" x="-229.717" y="-24.8" font-family="Times,serif" font-size="14.00">new</text>
<text text-anchor="start" x="-229.717" y="-10.8" font-family="Times,serif" font-size="14.00">show</text>
<text text-anchor="start" x="-229.717" y="3.2" font-family="Times,serif" font-size="14.00">update</text>
<polyline fill="none" stroke="black" points="-237.717,10 -118.283,10 "/>
<polyline fill="none" stroke="black" points="-237.717,34 -118.283,34 "/>
<text text-anchor="start" x="-229.717" y="49.2" font-family="Times,serif" font-size="14.00">_layout</text>
<text text-anchor="start" x="-229.717" y="63.2" font-family="Times,serif" font-size="14.00">region_params</text>
<text text-anchor="start" x="-229.717" y="77.2" font-family="Times,serif" font-size="14.00">set_region</text>
</g>
<!-- ReviewsController -->
<g id="node9" class="node"><title>ReviewsController</title>
<path fill="none" stroke="black" d="M-4.87939,-137C-4.87939,-137 92.8794,-137 92.8794,-137 98.8794,-137 104.879,-143 104.879,-149 104.879,-149 104.879,-327 104.879,-327 104.879,-333 98.8794,-339 92.8794,-339 92.8794,-339 -4.87939,-339 -4.87939,-339 -10.8794,-339 -16.8794,-333 -16.8794,-327 -16.8794,-327 -16.8794,-149 -16.8794,-149 -16.8794,-143 -10.8794,-137 -4.87939,-137"/>
<text text-anchor="middle" x="44" y="-323.8" font-family="Times,serif" font-size="14.00">ReviewsController</text>
<polyline fill="none" stroke="black" points="-16.8794,-317 104.879,-317 "/>
<text text-anchor="start" x="-8.87939" y="-301.8" font-family="Times,serif" font-size="14.00">index</text>
<text text-anchor="start" x="-8.87939" y="-287.8" font-family="Times,serif" font-size="14.00">destroy</text>
<text text-anchor="start" x="-8.87939" y="-273.8" font-family="Times,serif" font-size="14.00">edit</text>
<text text-anchor="start" x="-8.87939" y="-259.8" font-family="Times,serif" font-size="14.00">create</text>
<text text-anchor="start" x="-8.87939" y="-245.8" font-family="Times,serif" font-size="14.00">new</text>
<text text-anchor="start" x="-8.87939" y="-231.8" font-family="Times,serif" font-size="14.00">show</text>
<text text-anchor="start" x="-8.87939" y="-217.8" font-family="Times,serif" font-size="14.00">update</text>
<polyline fill="none" stroke="black" points="-16.8794,-211 104.879,-211 "/>
<polyline fill="none" stroke="black" points="-16.8794,-187 104.879,-187 "/>
<text text-anchor="start" x="-8.87939" y="-171.8" font-family="Times,serif" font-size="14.00">_layout</text>
<text text-anchor="start" x="-8.87939" y="-157.8" font-family="Times,serif" font-size="14.00">review_params</text>
<text text-anchor="start" x="-8.87939" y="-143.8" font-family="Times,serif" font-size="14.00">set_review</text>
</g>
<!-- StoreMenusController -->
<g id="node10" class="node"><title>StoreMenusController</title>
<path fill="none" stroke="black" d="M148.396,-137C148.396,-137 265.604,-137 265.604,-137 271.604,-137 277.604,-143 277.604,-149 277.604,-149 277.604,-327 277.604,-327 277.604,-333 271.604,-339 265.604,-339 265.604,-339 148.396,-339 148.396,-339 142.396,-339 136.396,-333 136.396,-327 136.396,-327 136.396,-149 136.396,-149 136.396,-143 142.396,-137 148.396,-137"/>
<text text-anchor="middle" x="207" y="-323.8" font-family="Times,serif" font-size="14.00">StoreMenusController</text>
<polyline fill="none" stroke="black" points="136.396,-317 277.604,-317 "/>
<text text-anchor="start" x="144.396" y="-301.8" font-family="Times,serif" font-size="14.00">index</text>
<text text-anchor="start" x="144.396" y="-287.8" font-family="Times,serif" font-size="14.00">destroy</text>
<text text-anchor="start" x="144.396" y="-273.8" font-family="Times,serif" font-size="14.00">edit</text>
<text text-anchor="start" x="144.396" y="-259.8" font-family="Times,serif" font-size="14.00">create</text>
<text text-anchor="start" x="144.396" y="-245.8" font-family="Times,serif" font-size="14.00">new</text>
<text text-anchor="start" x="144.396" y="-231.8" font-family="Times,serif" font-size="14.00">show</text>
<text text-anchor="start" x="144.396" y="-217.8" font-family="Times,serif" font-size="14.00">update</text>
<polyline fill="none" stroke="black" points="136.396,-211 277.604,-211 "/>
<polyline fill="none" stroke="black" points="136.396,-187 277.604,-187 "/>
<text text-anchor="start" x="144.396" y="-171.8" font-family="Times,serif" font-size="14.00">_layout</text>
<text text-anchor="start" x="144.396" y="-157.8" font-family="Times,serif" font-size="14.00">set_store_menu</text>
<text text-anchor="start" x="144.396" y="-143.8" font-family="Times,serif" font-size="14.00">store_menu_params</text>
</g>
<!-- StoreOwnersController -->
<g id="node11" class="node"><title>StoreOwnersController</title>
<path fill="none" stroke="black" d="M113.679,101C113.679,101 236.321,101 236.321,101 242.321,101 248.321,95 248.321,89 248.321,89 248.321,-89 248.321,-89 248.321,-95 242.321,-101 236.321,-101 236.321,-101 113.679,-101 113.679,-101 107.679,-101 101.679,-95 101.679,-89 101.679,-89 101.679,89 101.679,89 101.679,95 107.679,101 113.679,101"/>
<text text-anchor="middle" x="175" y="-85.8" font-family="Times,serif" font-size="14.00">StoreOwnersController</text>
<polyline fill="none" stroke="black" points="101.679,-79 248.321,-79 "/>
<text text-anchor="start" x="109.679" y="-63.8" font-family="Times,serif" font-size="14.00">index</text>
<text text-anchor="start" x="109.679" y="-49.8" font-family="Times,serif" font-size="14.00">destroy</text>
<text text-anchor="start" x="109.679" y="-35.8" font-family="Times,serif" font-size="14.00">edit</text>
<text text-anchor="start" x="109.679" y="-21.8" font-family="Times,serif" font-size="14.00">create</text>
<text text-anchor="start" x="109.679" y="-7.8" font-family="Times,serif" font-size="14.00">new</text>
<text text-anchor="start" x="109.679" y="6.2" font-family="Times,serif" font-size="14.00">show</text>
<text text-anchor="start" x="109.679" y="20.2" font-family="Times,serif" font-size="14.00">update</text>
<polyline fill="none" stroke="black" points="101.679,27 248.321,27 "/>
<polyline fill="none" stroke="black" points="101.679,51 248.321,51 "/>
<text text-anchor="start" x="109.679" y="66.2" font-family="Times,serif" font-size="14.00">_layout</text>
<text text-anchor="start" x="109.679" y="80.2" font-family="Times,serif" font-size="14.00">set_store_owner</text>
<text text-anchor="start" x="109.679" y="94.2" font-family="Times,serif" font-size="14.00">store_owner_params</text>
</g>
<!-- StoresController -->
<g id="node12" class="node"><title>StoresController</title>
<path fill="none" stroke="black" d="M300.728,288C300.728,288 385.272,288 385.272,288 391.272,288 397.272,282 397.272,276 397.272,276 397.272,98 397.272,98 397.272,92 391.272,86 385.272,86 385.272,86 300.728,86 300.728,86 294.728,86 288.728,92 288.728,98 288.728,98 288.728,276 288.728,276 288.728,282 294.728,288 300.728,288"/>
<text text-anchor="middle" x="343" y="101.2" font-family="Times,serif" font-size="14.00">StoresController</text>
<polyline fill="none" stroke="black" points="288.728,108 397.272,108 "/>
<text text-anchor="start" x="296.728" y="123.2" font-family="Times,serif" font-size="14.00">index</text>
<text text-anchor="start" x="296.728" y="137.2" font-family="Times,serif" font-size="14.00">destroy</text>
<text text-anchor="start" x="296.728" y="151.2" font-family="Times,serif" font-size="14.00">edit</text>
<text text-anchor="start" x="296.728" y="165.2" font-family="Times,serif" font-size="14.00">create</text>
<text text-anchor="start" x="296.728" y="179.2" font-family="Times,serif" font-size="14.00">new</text>
<text text-anchor="start" x="296.728" y="193.2" font-family="Times,serif" font-size="14.00">show</text>
<text text-anchor="start" x="296.728" y="207.2" font-family="Times,serif" font-size="14.00">update</text>
<polyline fill="none" stroke="black" points="288.728,214 397.272,214 "/>
<polyline fill="none" stroke="black" points="288.728,238 397.272,238 "/>
<text text-anchor="start" x="296.728" y="253.2" font-family="Times,serif" font-size="14.00">_layout</text>
<text text-anchor="start" x="296.728" y="267.2" font-family="Times,serif" font-size="14.00">set_store</text>
<text text-anchor="start" x="296.728" y="281.2" font-family="Times,serif" font-size="14.00">store_params</text>
</g>
<!-- UsersController -->
<g id="node13" class="node"><title>UsersController</title>
<path fill="none" stroke="black" d="M-140.714,-154C-140.714,-154 -59.2861,-154 -59.2861,-154 -53.2861,-154 -47.2861,-160 -47.2861,-166 -47.2861,-166 -47.2861,-344 -47.2861,-344 -47.2861,-350 -53.2861,-356 -59.2861,-356 -59.2861,-356 -140.714,-356 -140.714,-356 -146.714,-356 -152.714,-350 -152.714,-344 -152.714,-344 -152.714,-166 -152.714,-166 -152.714,-160 -146.714,-154 -140.714,-154"/>
<text text-anchor="middle" x="-100" y="-340.8" font-family="Times,serif" font-size="14.00">UsersController</text>
<polyline fill="none" stroke="black" points="-152.714,-334 -47.2861,-334 "/>
<text text-anchor="start" x="-144.714" y="-318.8" font-family="Times,serif" font-size="14.00">index</text>
<text text-anchor="start" x="-144.714" y="-304.8" font-family="Times,serif" font-size="14.00">destroy</text>
<text text-anchor="start" x="-144.714" y="-290.8" font-family="Times,serif" font-size="14.00">edit</text>
<text text-anchor="start" x="-144.714" y="-276.8" font-family="Times,serif" font-size="14.00">create</text>
<text text-anchor="start" x="-144.714" y="-262.8" font-family="Times,serif" font-size="14.00">new</text>
<text text-anchor="start" x="-144.714" y="-248.8" font-family="Times,serif" font-size="14.00">show</text>
<text text-anchor="start" x="-144.714" y="-234.8" font-family="Times,serif" font-size="14.00">update</text>
<polyline fill="none" stroke="black" points="-152.714,-228 -47.2861,-228 "/>
<polyline fill="none" stroke="black" points="-152.714,-204 -47.2861,-204 "/>
<text text-anchor="start" x="-144.714" y="-188.8" font-family="Times,serif" font-size="14.00">_layout</text>
<text text-anchor="start" x="-144.714" y="-174.8" font-family="Times,serif" font-size="14.00">set_user</text>
<text text-anchor="start" x="-144.714" y="-160.8" font-family="Times,serif" font-size="14.00">user_params</text>
</g>
</g>
</svg>
