<?xml version="1.0" encoding="UTF-8" standalone="no"?>
<!DOCTYPE svg PUBLIC "-//W3C//DTD SVG 1.1//EN"
 "http://www.w3.org/Graphics/SVG/1.1/DTD/svg11.dtd">
<!-- Generated by graphviz version 2.38.0 (20140413.2041)
 -->
<!-- Title: models_diagram Pages: 1 -->
<svg width="1144pt" height="800pt"
 viewBox="0.00 0.00 1143.77 800.00" xmlns="http://www.w3.org/2000/svg" xmlns:xlink="http://www.w3.org/1999/xlink">
<g id="graph0" class="graph" transform="scale(1 1) rotate(0) translate(4 796)">
<title>models_diagram</title>
<polygon fill="none" stroke="none" points="-4,4 -4,-796 1139.77,-796 1139.77,4 -4,4"/>
<!-- _diagram_info -->
<g id="node1" class="node"><title>_diagram_info</title>
<text text-anchor="start" x="8" y="-742.6" font-family="Times,serif" font-size="13.00">Models diagram</text>
<text text-anchor="start" x="8" y="-729.6" font-family="Times,serif" font-size="13.00">Date: Feb 02 2016 &#45; 11:21</text>
<text text-anchor="start" x="8" y="-716.6" font-family="Times,serif" font-size="13.00">Migration version: 20160201111236</text>
<text text-anchor="start" x="8" y="-703.6" font-family="Times,serif" font-size="13.00">Generated by RailRoady 1.4.2</text>
<text text-anchor="start" x="8" y="-690.6" font-family="Times,serif" font-size="13.00">http://railroady.prestonlee.com</text>
</g>
<!-- ApplicationRecord -->
<g id="node2" class="node"><title>ApplicationRecord</title>
<ellipse fill="none" stroke="black" cx="300.974" cy="-720.5" rx="77.2916" ry="18"/>
<text text-anchor="middle" x="300.974" y="-716.3" font-family="Times,serif" font-size="14.00">ApplicationRecord</text>
</g>
<!-- CommonCode -->
<g id="node3" class="node"><title>CommonCode</title>
<path fill="none" stroke="black" d="M408.186,-663.5C408.186,-663.5 567.762,-663.5 567.762,-663.5 573.762,-663.5 579.762,-669.5 579.762,-675.5 579.762,-675.5 579.762,-765.5 579.762,-765.5 579.762,-771.5 573.762,-777.5 567.762,-777.5 567.762,-777.5 408.186,-777.5 408.186,-777.5 402.186,-777.5 396.186,-771.5 396.186,-765.5 396.186,-765.5 396.186,-675.5 396.186,-675.5 396.186,-669.5 402.186,-663.5 408.186,-663.5"/>
<text text-anchor="middle" x="487.974" y="-762.3" font-family="Times,serif" font-size="14.00">CommonCode</text>
<polyline fill="none" stroke="black" points="396.186,-755.5 579.762,-755.5 "/>
<text text-anchor="start" x="404.186" y="-740.3" font-family="Times,serif" font-size="14.00">common_code_id :INTEGER</text>
<text text-anchor="start" x="404.186" y="-726.3" font-family="Times,serif" font-size="14.00">main_code :varchar</text>
<text text-anchor="start" x="404.186" y="-712.3" font-family="Times,serif" font-size="14.00">detail_id :integer</text>
<text text-anchor="start" x="404.186" y="-698.3" font-family="Times,serif" font-size="14.00">name_kor :varchar</text>
<text text-anchor="start" x="404.186" y="-684.3" font-family="Times,serif" font-size="14.00">created_at :datetime</text>
<text text-anchor="start" x="404.186" y="-670.3" font-family="Times,serif" font-size="14.00">updated_at :datetime</text>
</g>
<!-- Image -->
<g id="node4" class="node"><title>Image</title>
<path fill="none" stroke="black" d="M690.537,-0.5C690.537,-0.5 845.41,-0.5 845.41,-0.5 851.41,-0.5 857.41,-6.5 857.41,-12.5 857.41,-12.5 857.41,-144.5 857.41,-144.5 857.41,-150.5 851.41,-156.5 845.41,-156.5 845.41,-156.5 690.537,-156.5 690.537,-156.5 684.537,-156.5 678.537,-150.5 678.537,-144.5 678.537,-144.5 678.537,-12.5 678.537,-12.5 678.537,-6.5 684.537,-0.5 690.537,-0.5"/>
<text text-anchor="middle" x="767.974" y="-141.3" font-family="Times,serif" font-size="14.00">Image</text>
<polyline fill="none" stroke="black" points="678.537,-134.5 857.41,-134.5 "/>
<text text-anchor="start" x="686.537" y="-119.3" font-family="Times,serif" font-size="14.00">image_updated_at :datetime</text>
<text text-anchor="start" x="686.537" y="-105.3" font-family="Times,serif" font-size="14.00">imageable_type :varchar</text>
<text text-anchor="start" x="686.537" y="-91.3" font-family="Times,serif" font-size="14.00">imageable_id :integer</text>
<text text-anchor="start" x="686.537" y="-77.3" font-family="Times,serif" font-size="14.00">created_at :datetime</text>
<text text-anchor="start" x="686.537" y="-63.3" font-family="Times,serif" font-size="14.00">updated_at :datetime</text>
<text text-anchor="start" x="686.537" y="-49.3" font-family="Times,serif" font-size="14.00">image_file_name :varchar</text>
<text text-anchor="start" x="686.537" y="-35.3" font-family="Times,serif" font-size="14.00">image_content_type :varchar</text>
<text text-anchor="start" x="686.537" y="-21.3" font-family="Times,serif" font-size="14.00">image_file_size :integer</text>
<text text-anchor="start" x="686.537" y="-7.3" font-family="Times,serif" font-size="14.00">image_id :INTEGER</text>
</g>
<!-- Region -->
<g id="node5" class="node"><title>Region</title>
<path fill="none" stroke="black" d="M798.513,-649.5C798.513,-649.5 911.434,-649.5 911.434,-649.5 917.434,-649.5 923.434,-655.5 923.434,-661.5 923.434,-661.5 923.434,-779.5 923.434,-779.5 923.434,-785.5 917.434,-791.5 911.434,-791.5 911.434,-791.5 798.513,-791.5 798.513,-791.5 792.513,-791.5 786.513,-785.5 786.513,-779.5 786.513,-779.5 786.513,-661.5 786.513,-661.5 786.513,-655.5 792.513,-649.5 798.513,-649.5"/>
<text text-anchor="middle" x="854.974" y="-776.3" font-family="Times,serif" font-size="14.00">Region</text>
<polyline fill="none" stroke="black" points="786.513,-769.5 923.434,-769.5 "/>
<text text-anchor="start" x="794.513" y="-754.3" font-family="Times,serif" font-size="14.00">updated_at :datetime</text>
<text text-anchor="start" x="794.513" y="-740.3" font-family="Times,serif" font-size="14.00">do :varchar</text>
<text text-anchor="start" x="794.513" y="-726.3" font-family="Times,serif" font-size="14.00">gu :varchar</text>
<text text-anchor="start" x="794.513" y="-712.3" font-family="Times,serif" font-size="14.00">dong :varchar</text>
<text text-anchor="start" x="794.513" y="-698.3" font-family="Times,serif" font-size="14.00">longitude :float</text>
<text text-anchor="start" x="794.513" y="-684.3" font-family="Times,serif" font-size="14.00">latitude :float</text>
<text text-anchor="start" x="794.513" y="-670.3" font-family="Times,serif" font-size="14.00">created_at :datetime</text>
<text text-anchor="start" x="794.513" y="-656.3" font-family="Times,serif" font-size="14.00">region_id :INTEGER</text>
</g>
<!-- Review -->
<g id="node6" class="node"><title>Review</title>
<path fill="none" stroke="black" d="M796.351,-193.5C796.351,-193.5 911.596,-193.5 911.596,-193.5 917.596,-193.5 923.596,-199.5 923.596,-205.5 923.596,-205.5 923.596,-309.5 923.596,-309.5 923.596,-315.5 917.596,-321.5 911.596,-321.5 911.596,-321.5 796.351,-321.5 796.351,-321.5 790.351,-321.5 784.351,-315.5 784.351,-309.5 784.351,-309.5 784.351,-205.5 784.351,-205.5 784.351,-199.5 790.351,-193.5 796.351,-193.5"/>
<text text-anchor="middle" x="853.974" y="-306.3" font-family="Times,serif" font-size="14.00">Review</text>
<polyline fill="none" stroke="black" points="784.351,-299.5 923.596,-299.5 "/>
<text text-anchor="start" x="792.351" y="-284.3" font-family="Times,serif" font-size="14.00">detail :text</text>
<text text-anchor="start" x="792.351" y="-270.3" font-family="Times,serif" font-size="14.00">store_id :integer</text>
<text text-anchor="start" x="792.351" y="-256.3" font-family="Times,serif" font-size="14.00">user_id :integer</text>
<text text-anchor="start" x="792.351" y="-242.3" font-family="Times,serif" font-size="14.00">review_id :INTEGER</text>
<text text-anchor="start" x="792.351" y="-228.3" font-family="Times,serif" font-size="14.00">grade :float</text>
<text text-anchor="start" x="792.351" y="-214.3" font-family="Times,serif" font-size="14.00">created_at :datetime</text>
<text text-anchor="start" x="792.351" y="-200.3" font-family="Times,serif" font-size="14.00">updated_at :datetime</text>
</g>
<!-- Review&#45;&gt;Image -->
<g id="edge1" class="edge"><title>Review&#45;&gt;Image</title>
<path fill="none" stroke="#489b73" d="M819.638,-185.833C816.436,-179.243 813.167,-172.515 809.907,-165.804"/>
<ellipse fill="none" stroke="#489b73" cx="821.42" cy="-189.501" rx="4.00002" ry="4.00002"/>
<polygon fill="#489b73" stroke="#489b73" points="809.842,-165.672 809.52,-154.711 807.657,-161.174 805.472,-156.677 805.472,-156.677 805.472,-156.677 807.657,-161.174 801.425,-158.644 809.842,-165.672 809.842,-165.672"/>
</g>
<!-- Store -->
<g id="node7" class="node"><title>Store</title>
<path fill="none" stroke="black" d="M620.299,-358.5C620.299,-358.5 745.648,-358.5 745.648,-358.5 751.648,-358.5 757.648,-364.5 757.648,-370.5 757.648,-370.5 757.648,-600.5 757.648,-600.5 757.648,-606.5 751.648,-612.5 745.648,-612.5 745.648,-612.5 620.299,-612.5 620.299,-612.5 614.299,-612.5 608.299,-606.5 608.299,-600.5 608.299,-600.5 608.299,-370.5 608.299,-370.5 608.299,-364.5 614.299,-358.5 620.299,-358.5"/>
<text text-anchor="middle" x="682.974" y="-597.3" font-family="Times,serif" font-size="14.00">Store</text>
<polyline fill="none" stroke="black" points="608.299,-590.5 757.648,-590.5 "/>
<text text-anchor="start" x="616.299" y="-575.3" font-family="Times,serif" font-size="14.00">updated_at :datetime</text>
<text text-anchor="start" x="616.299" y="-561.3" font-family="Times,serif" font-size="14.00">store_owner_id :integer</text>
<text text-anchor="start" x="616.299" y="-547.3" font-family="Times,serif" font-size="14.00">category_id :integer</text>
<text text-anchor="start" x="616.299" y="-533.3" font-family="Times,serif" font-size="14.00">name :varchar</text>
<text text-anchor="start" x="616.299" y="-519.3" font-family="Times,serif" font-size="14.00">address :varchar</text>
<text text-anchor="start" x="616.299" y="-505.3" font-family="Times,serif" font-size="14.00">longitude :float</text>
<text text-anchor="start" x="616.299" y="-491.3" font-family="Times,serif" font-size="14.00">latitude :float</text>
<text text-anchor="start" x="616.299" y="-477.3" font-family="Times,serif" font-size="14.00">phone :varchar</text>
<text text-anchor="start" x="616.299" y="-463.3" font-family="Times,serif" font-size="14.00">detail :text</text>
<text text-anchor="start" x="616.299" y="-449.3" font-family="Times,serif" font-size="14.00">start_time :datetime</text>
<text text-anchor="start" x="616.299" y="-435.3" font-family="Times,serif" font-size="14.00">end_time :datetime</text>
<text text-anchor="start" x="616.299" y="-421.3" font-family="Times,serif" font-size="14.00">holiday :varchar</text>
<text text-anchor="start" x="616.299" y="-407.3" font-family="Times,serif" font-size="14.00">reviews_count :integer</text>
<text text-anchor="start" x="616.299" y="-393.3" font-family="Times,serif" font-size="14.00">grade_total :float</text>
<text text-anchor="start" x="616.299" y="-379.3" font-family="Times,serif" font-size="14.00">created_at :datetime</text>
<text text-anchor="start" x="616.299" y="-365.3" font-family="Times,serif" font-size="14.00">store_id :INTEGER</text>
</g>
<!-- Store&#45;&gt;Image -->
<g id="edge2" class="edge"><title>Store&#45;&gt;Image</title>
<path fill="none" stroke="#81ba19" d="M604.55,-367.85C577.778,-312.778 561.251,-247.367 590.974,-193 608.266,-161.369 638.555,-137.253 669.241,-119.56"/>
<ellipse fill="none" stroke="#81ba19" cx="606.43" cy="-371.624" rx="4.00002" ry="4.00002"/>
<polygon fill="#81ba19" stroke="#81ba19" points="669.588,-119.367 680.515,-118.44 673.958,-116.937 678.328,-114.507 678.328,-114.507 678.328,-114.507 673.958,-116.937 676.141,-110.574 669.588,-119.367 669.588,-119.367"/>
</g>
<!-- Store&#45;&gt;Review -->
<g id="edge4" class="edge"><title>Store&#45;&gt;Review</title>
<path fill="none" stroke="#e3af0f" d="M762.559,-379.317C775.259,-362.532 788.134,-345.516 800.056,-329.76"/>
<ellipse fill="none" stroke="#e3af0f" cx="760.142" cy="-382.512" rx="4.00002" ry="4.00002"/>
<polygon fill="#e3af0f" stroke="#e3af0f" points="800.163,-329.618 809.786,-324.358 803.18,-325.63 806.197,-321.643 806.197,-321.643 806.197,-321.643 803.18,-325.63 802.609,-318.928 800.163,-329.618 800.163,-329.618"/>
</g>
<!-- StoreMenu -->
<g id="node8" class="node"><title>StoreMenu</title>
<path fill="none" stroke="black" d="M611.737,-214.5C611.737,-214.5 754.21,-214.5 754.21,-214.5 760.21,-214.5 766.21,-220.5 766.21,-226.5 766.21,-226.5 766.21,-288.5 766.21,-288.5 766.21,-294.5 760.21,-300.5 754.21,-300.5 754.21,-300.5 611.737,-300.5 611.737,-300.5 605.737,-300.5 599.737,-294.5 599.737,-288.5 599.737,-288.5 599.737,-226.5 599.737,-226.5 599.737,-220.5 605.737,-214.5 611.737,-214.5"/>
<text text-anchor="middle" x="682.974" y="-285.3" font-family="Times,serif" font-size="14.00">StoreMenu</text>
<polyline fill="none" stroke="black" points="599.737,-278.5 766.21,-278.5 "/>
<text text-anchor="start" x="607.737" y="-263.3" font-family="Times,serif" font-size="14.00">store_menu_id :INTEGER</text>
<text text-anchor="start" x="607.737" y="-249.3" font-family="Times,serif" font-size="14.00">store_id :integer</text>
<text text-anchor="start" x="607.737" y="-235.3" font-family="Times,serif" font-size="14.00">created_at :datetime</text>
<text text-anchor="start" x="607.737" y="-221.3" font-family="Times,serif" font-size="14.00">updated_at :datetime</text>
</g>
<!-- Store&#45;&gt;StoreMenu -->
<g id="edge3" class="edge"><title>Store&#45;&gt;StoreMenu</title>
<path fill="none" stroke="#11eafc" d="M682.974,-350.025C682.974,-336.197 682.974,-322.815 682.974,-310.748"/>
<ellipse fill="none" stroke="#11eafc" cx="682.974" cy="-354.285" rx="4" ry="4"/>
<polygon fill="#11eafc" stroke="#11eafc" points="682.974,-310.504 687.474,-300.504 682.974,-305.504 682.974,-300.504 682.974,-300.504 682.974,-300.504 682.974,-305.504 678.474,-300.504 682.974,-310.504 682.974,-310.504"/>
</g>
<!-- StoreMenu&#45;&gt;Image -->
<g id="edge5" class="edge"><title>StoreMenu&#45;&gt;Image</title>
<path fill="none" stroke="#4f4354" d="M706.922,-206.63C713.29,-193.37 720.35,-178.67 727.341,-164.111"/>
<ellipse fill="none" stroke="#4f4354" cx="705.065" cy="-210.498" rx="4.00002" ry="4.00002"/>
<ellipse fill="#4f4354" stroke="#4f4354" cx="729.256" cy="-160.124" rx="4.00002" ry="4.00002"/>
</g>
<!-- StoreOwner -->
<g id="node9" class="node"><title>StoreOwner</title>
<path fill="none" stroke="black" d="M609.796,-656.5C609.796,-656.5 756.151,-656.5 756.151,-656.5 762.151,-656.5 768.151,-662.5 768.151,-668.5 768.151,-668.5 768.151,-772.5 768.151,-772.5 768.151,-778.5 762.151,-784.5 756.151,-784.5 756.151,-784.5 609.796,-784.5 609.796,-784.5 603.796,-784.5 597.796,-778.5 597.796,-772.5 597.796,-772.5 597.796,-668.5 597.796,-668.5 597.796,-662.5 603.796,-656.5 609.796,-656.5"/>
<text text-anchor="middle" x="682.974" y="-769.3" font-family="Times,serif" font-size="14.00">StoreOwner</text>
<polyline fill="none" stroke="black" points="597.796,-762.5 768.151,-762.5 "/>
<text text-anchor="start" x="605.796" y="-747.3" font-family="Times,serif" font-size="14.00">name :varchar</text>
<text text-anchor="start" x="605.796" y="-733.3" font-family="Times,serif" font-size="14.00">email :varchar</text>
<text text-anchor="start" x="605.796" y="-719.3" font-family="Times,serif" font-size="14.00">password :varchar</text>
<text text-anchor="start" x="605.796" y="-705.3" font-family="Times,serif" font-size="14.00">store_owner_id :INTEGER</text>
<text text-anchor="start" x="605.796" y="-691.3" font-family="Times,serif" font-size="14.00">phone :varchar</text>
<text text-anchor="start" x="605.796" y="-677.3" font-family="Times,serif" font-size="14.00">created_at :datetime</text>
<text text-anchor="start" x="605.796" y="-663.3" font-family="Times,serif" font-size="14.00">updated_at :datetime</text>
</g>
<!-- StoreOwner&#45;&gt;Store -->
<g id="edge6" class="edge"><title>StoreOwner&#45;&gt;Store</title>
<path fill="none" stroke="#295332" d="M682.974,-648.336C682.974,-640.205 682.974,-631.725 682.974,-623.093"/>
<ellipse fill="none" stroke="#295332" cx="682.974" cy="-652.447" rx="4" ry="4"/>
<polygon fill="#295332" stroke="#295332" points="682.974,-622.902 687.474,-612.902 682.974,-617.902 682.974,-612.902 682.974,-612.902 682.974,-612.902 682.974,-617.902 678.474,-612.902 682.974,-622.902 682.974,-622.902"/>
</g>
<!-- User -->
<g id="node10" class="node"><title>User</title>
<path fill="none" stroke="black" d="M892.023,-407.5C892.023,-407.5 1011.92,-407.5 1011.92,-407.5 1017.92,-407.5 1023.92,-413.5 1023.92,-419.5 1023.92,-419.5 1023.92,-551.5 1023.92,-551.5 1023.92,-557.5 1017.92,-563.5 1011.92,-563.5 1011.92,-563.5 892.023,-563.5 892.023,-563.5 886.023,-563.5 880.023,-557.5 880.023,-551.5 880.023,-551.5 880.023,-419.5 880.023,-419.5 880.023,-413.5 886.023,-407.5 892.023,-407.5"/>
<text text-anchor="middle" x="951.974" y="-548.3" font-family="Times,serif" font-size="14.00">User</text>
<polyline fill="none" stroke="black" points="880.023,-541.5 1023.92,-541.5 "/>
<text text-anchor="start" x="888.023" y="-526.3" font-family="Times,serif" font-size="14.00">updated_at :datetime</text>
<text text-anchor="start" x="888.023" y="-512.3" font-family="Times,serif" font-size="14.00">email :varchar</text>
<text text-anchor="start" x="888.023" y="-498.3" font-family="Times,serif" font-size="14.00">password :varchar</text>
<text text-anchor="start" x="888.023" y="-484.3" font-family="Times,serif" font-size="14.00">nickname :varchar</text>
<text text-anchor="start" x="888.023" y="-470.3" font-family="Times,serif" font-size="14.00">phone :varchar</text>
<text text-anchor="start" x="888.023" y="-456.3" font-family="Times,serif" font-size="14.00">gender :integer</text>
<text text-anchor="start" x="888.023" y="-442.3" font-family="Times,serif" font-size="14.00">reviews_count :integer</text>
<text text-anchor="start" x="888.023" y="-428.3" font-family="Times,serif" font-size="14.00">created_at :datetime</text>
<text text-anchor="start" x="888.023" y="-414.3" font-family="Times,serif" font-size="14.00">user_id :INTEGER</text>
</g>
<!-- User&#45;&gt;Image -->
<g id="edge7" class="edge"><title>User&#45;&gt;Image</title>
<path fill="none" stroke="#16e392" d="M965.23,-399.351C970.493,-338.036 968.458,-255.457 932.974,-193 917.061,-164.992 891.055,-142.391 864.345,-124.951"/>
<ellipse fill="none" stroke="#16e392" cx="964.847" cy="-403.494" rx="4" ry="4"/>
<ellipse fill="#16e392" stroke="#16e392" cx="860.921" cy="-122.774" rx="4.00002" ry="4.00002"/>
</g>
<!-- User&#45;&gt;Review -->
<g id="edge9" class="edge"><title>User&#45;&gt;Review</title>
<path fill="none" stroke="#c929cb" d="M915.232,-399.769C905.426,-377.155 894.919,-352.926 885.426,-331.032"/>
<ellipse fill="none" stroke="#c929cb" cx="916.93" cy="-403.686" rx="4.00002" ry="4.00002"/>
<polygon fill="#c929cb" stroke="#c929cb" points="885.402,-330.978 885.552,-320.013 883.413,-326.391 881.424,-321.803 881.424,-321.803 881.424,-321.803 883.413,-326.391 877.295,-323.594 885.402,-330.978 885.402,-330.978"/>
</g>
<!-- UserAuth -->
<g id="node11" class="node"><title>UserAuth</title>
<path fill="none" stroke="black" d="M992.182,-207.5C992.182,-207.5 1123.77,-207.5 1123.77,-207.5 1129.77,-207.5 1135.77,-213.5 1135.77,-219.5 1135.77,-219.5 1135.77,-295.5 1135.77,-295.5 1135.77,-301.5 1129.77,-307.5 1123.77,-307.5 1123.77,-307.5 992.182,-307.5 992.182,-307.5 986.182,-307.5 980.182,-301.5 980.182,-295.5 980.182,-295.5 980.182,-219.5 980.182,-219.5 980.182,-213.5 986.182,-207.5 992.182,-207.5"/>
<text text-anchor="middle" x="1057.97" y="-292.3" font-family="Times,serif" font-size="14.00">UserAuth</text>
<polyline fill="none" stroke="black" points="980.182,-285.5 1135.77,-285.5 "/>
<text text-anchor="start" x="988.182" y="-270.3" font-family="Times,serif" font-size="14.00">user_auth_id :INTEGER</text>
<text text-anchor="start" x="988.182" y="-256.3" font-family="Times,serif" font-size="14.00">user_id :integer</text>
<text text-anchor="start" x="988.182" y="-242.3" font-family="Times,serif" font-size="14.00">access_token :varchar</text>
<text text-anchor="start" x="988.182" y="-228.3" font-family="Times,serif" font-size="14.00">created_at :datetime</text>
<text text-anchor="start" x="988.182" y="-214.3" font-family="Times,serif" font-size="14.00">updated_at :datetime</text>
</g>
<!-- User&#45;&gt;UserAuth -->
<g id="edge8" class="edge"><title>User&#45;&gt;UserAuth</title>
<path fill="none" stroke="#f75be6" d="M991.634,-399.94C1004.63,-372.24 1018.76,-342.102 1030.63,-316.791"/>
<ellipse fill="none" stroke="#f75be6" cx="989.855" cy="-403.734" rx="4.00002" ry="4.00002"/>
<polygon fill="#f75be6" stroke="#f75be6" points="1030.65,-316.751 1038.97,-309.608 1032.78,-312.224 1034.9,-307.698 1034.9,-307.698 1034.9,-307.698 1032.78,-312.224 1030.82,-305.787 1030.65,-316.751 1030.65,-316.751"/>
</g>
</g>
</svg>
