<?xml version="1.0" encoding="UTF-8" standalone="no"?>
<!DOCTYPE svg PUBLIC "-//W3C//DTD SVG 1.1//EN"
 "http://www.w3.org/Graphics/SVG/1.1/DTD/svg11.dtd">
<!-- Generated by graphviz version 2.38.0 (20140413.2041)
 -->
<!-- Title: models_diagram Pages: 1 -->
<svg width="885pt" height="297pt"
 viewBox="0.00 0.00 885.47 297.00" xmlns="http://www.w3.org/2000/svg" xmlns:xlink="http://www.w3.org/1999/xlink">
<g id="graph0" class="graph" transform="scale(1 1) rotate(0) translate(4 293)">
<title>models_diagram</title>
<polygon fill="none" stroke="none" points="-4,4 -4,-293 881.465,-293 881.465,4 -4,4"/>
<!-- _diagram_info -->
<g id="node1" class="node"><title>_diagram_info</title>
<text text-anchor="start" x="8" y="-274.6" font-family="Times,serif" font-size="13.00">Models diagram</text>
<text text-anchor="start" x="8" y="-261.6" font-family="Times,serif" font-size="13.00">Date: Feb 02 2016 &#45; 11:21</text>
<text text-anchor="start" x="8" y="-248.6" font-family="Times,serif" font-size="13.00">Migration version: 20160201111236</text>
<text text-anchor="start" x="8" y="-235.6" font-family="Times,serif" font-size="13.00">Generated by RailRoady 1.4.2</text>
<text text-anchor="start" x="8" y="-222.6" font-family="Times,serif" font-size="13.00">http://railroady.prestonlee.com</text>
</g>
<!-- ApplicationRecord -->
<g id="node2" class="node"><title>ApplicationRecord</title>
<ellipse fill="none" stroke="black" cx="300.974" cy="-252.5" rx="77.2916" ry="18"/>
<text text-anchor="middle" x="300.974" y="-248.3" font-family="Times,serif" font-size="14.00">ApplicationRecord</text>
</g>
<!-- CommonCode -->
<g id="node3" class="node"><title>CommonCode</title>
<ellipse fill="none" stroke="black" cx="457.974" cy="-252.5" rx="61.8909" ry="18"/>
<text text-anchor="middle" x="457.974" y="-248.3" font-family="Times,serif" font-size="14.00">CommonCode</text>
</g>
<!-- Image -->
<g id="node4" class="node"><title>Image</title>
<ellipse fill="none" stroke="black" cx="642.974" cy="-18" rx="32.4063" ry="18"/>
<text text-anchor="middle" x="642.974" y="-13.8" font-family="Times,serif" font-size="14.00">Image</text>
</g>
<!-- Region -->
<g id="node5" class="node"><title>Region</title>
<ellipse fill="none" stroke="black" cx="696.974" cy="-252.5" rx="35.806" ry="18"/>
<text text-anchor="middle" x="696.974" y="-248.3" font-family="Times,serif" font-size="14.00">Region</text>
</g>
<!-- Review -->
<g id="node6" class="node"><title>Review</title>
<ellipse fill="none" stroke="black" cx="695.974" cy="-90" rx="37.2421" ry="18"/>
<text text-anchor="middle" x="695.974" y="-85.8" font-family="Times,serif" font-size="14.00">Review</text>
</g>
<!-- Review&#45;&gt;Image -->
<g id="edge1" class="edge"><title>Review&#45;&gt;Image</title>
<path fill="none" stroke="#cc0aec" d="M678.826,-66.3523C673.29,-59.0401 667.129,-50.9028 661.497,-43.4653"/>
<ellipse fill="none" stroke="#cc0aec" cx="681.267" cy="-69.5756" rx="4.00002" ry="4.00002"/>
<polygon fill="#cc0aec" stroke="#cc0aec" points="661.236,-43.1199 658.787,-32.4309 658.218,-39.1336 655.199,-35.1473 655.199,-35.1473 655.199,-35.1473 658.218,-39.1336 651.612,-37.8637 661.236,-43.1199 661.236,-43.1199"/>
</g>
<!-- Store -->
<g id="node7" class="node"><title>Store</title>
<ellipse fill="none" stroke="black" cx="590.974" cy="-162" rx="28.5497" ry="18"/>
<text text-anchor="middle" x="590.974" y="-157.8" font-family="Times,serif" font-size="14.00">Store</text>
</g>
<!-- Store&#45;&gt;Image -->
<g id="edge2" class="edge"><title>Store&#45;&gt;Image</title>
<path fill="none" stroke="#1a60e3" d="M564.28,-144.269C552.324,-135.166 539.473,-122.744 532.974,-108 526.52,-93.3595 524.462,-85.5484 532.974,-72 548.236,-47.704 578.109,-34.2837 602.877,-27.0306"/>
<ellipse fill="none" stroke="#1a60e3" cx="567.545" cy="-146.633" rx="4.00002" ry="4.00002"/>
<polygon fill="#1a60e3" stroke="#1a60e3" points="603.114,-26.9668 613.939,-28.7173 607.943,-25.6691 612.772,-24.3715 612.772,-24.3715 612.772,-24.3715 607.943,-25.6691 611.604,-20.0256 603.114,-26.9668 603.114,-26.9668"/>
</g>
<!-- Store&#45;&gt;Review -->
<g id="edge4" class="edge"><title>Store&#45;&gt;Review</title>
<path fill="none" stroke="#8387d2" d="M617.035,-143.626C631.991,-133.655 650.82,-121.102 666.337,-110.758"/>
<ellipse fill="none" stroke="#8387d2" cx="613.56" cy="-145.942" rx="4.00002" ry="4.00002"/>
<polygon fill="#8387d2" stroke="#8387d2" points="666.716,-110.505 677.533,-108.702 670.876,-107.731 675.037,-104.958 675.037,-104.958 675.037,-104.958 670.876,-107.731 672.541,-101.214 666.716,-110.505 666.716,-110.505"/>
</g>
<!-- StoreMenu -->
<g id="node8" class="node"><title>StoreMenu</title>
<ellipse fill="none" stroke="black" cx="590.974" cy="-90" rx="49.3119" ry="18"/>
<text text-anchor="middle" x="590.974" y="-85.8" font-family="Times,serif" font-size="14.00">StoreMenu</text>
</g>
<!-- Store&#45;&gt;StoreMenu -->
<g id="edge3" class="edge"><title>Store&#45;&gt;StoreMenu</title>
<path fill="none" stroke="#734668" d="M590.974,-135.64C590.974,-130.063 590.974,-124.132 590.974,-118.476"/>
<ellipse fill="none" stroke="#734668" cx="590.974" cy="-139.697" rx="4" ry="4"/>
<polygon fill="#734668" stroke="#734668" points="590.974,-118.104 595.474,-108.104 590.974,-113.104 590.974,-108.104 590.974,-108.104 590.974,-108.104 590.974,-113.104 586.474,-108.104 590.974,-118.104 590.974,-118.104"/>
</g>
<!-- StoreMenu&#45;&gt;Image -->
<g id="edge5" class="edge"><title>StoreMenu&#45;&gt;Image</title>
<path fill="none" stroke="#bbca68" d="M608.273,-65.7127C614.008,-57.9927 620.381,-49.4133 626.085,-41.7353"/>
<ellipse fill="none" stroke="#bbca68" cx="605.682" cy="-69.2" rx="4.00002" ry="4.00002"/>
<ellipse fill="#bbca68" stroke="#bbca68" cx="628.711" cy="-38.1991" rx="4.00002" ry="4.00002"/>
</g>
<!-- StoreOwner -->
<g id="node9" class="node"><title>StoreOwner</title>
<ellipse fill="none" stroke="black" cx="590.974" cy="-252.5" rx="52.6779" ry="18"/>
<text text-anchor="middle" x="590.974" y="-248.3" font-family="Times,serif" font-size="14.00">StoreOwner</text>
</g>
<!-- StoreOwner&#45;&gt;Store -->
<g id="edge6" class="edge"><title>StoreOwner&#45;&gt;Store</title>
<path fill="none" stroke="#b9c0b4" d="M590.974,-226.189C590.974,-214.971 590.974,-201.752 590.974,-190.311"/>
<ellipse fill="none" stroke="#b9c0b4" cx="590.974" cy="-230.436" rx="4" ry="4"/>
<polygon fill="#b9c0b4" stroke="#b9c0b4" points="590.974,-190.011 595.474,-180.011 590.974,-185.011 590.974,-180.011 590.974,-180.011 590.974,-180.011 590.974,-185.011 586.474,-180.011 590.974,-190.011 590.974,-190.011"/>
</g>
<!-- User -->
<g id="node10" class="node"><title>User</title>
<ellipse fill="none" stroke="black" cx="760.974" cy="-162" rx="27" ry="18"/>
<text text-anchor="middle" x="760.974" y="-157.8" font-family="Times,serif" font-size="14.00">User</text>
</g>
<!-- User&#45;&gt;Image -->
<g id="edge7" class="edge"><title>User&#45;&gt;Image</title>
<path fill="none" stroke="#ed6121" d="M761.132,-135.828C760.037,-116.601 755.788,-90.3694 741.974,-72 726.424,-51.3232 700.393,-37.8413 678.926,-29.6512"/>
<ellipse fill="none" stroke="#ed6121" cx="761.282" cy="-139.858" rx="4" ry="4"/>
<ellipse fill="#ed6121" stroke="#ed6121" cx="675.012" cy="-28.2326" rx="4.00001" ry="4.00001"/>
</g>
<!-- User&#45;&gt;Review -->
<g id="edge9" class="edge"><title>User&#45;&gt;Review</title>
<path fill="none" stroke="#9da796" d="M741.608,-140.145C734.01,-131.963 725.261,-122.54 717.469,-114.148"/>
<ellipse fill="none" stroke="#9da796" cx="744.467" cy="-143.224" rx="4.00002" ry="4.00002"/>
<polygon fill="#9da796" stroke="#9da796" points="717.446,-114.125 713.94,-103.735 714.044,-110.461 710.642,-106.797 710.642,-106.797 710.642,-106.797 714.044,-110.461 707.344,-109.859 717.446,-114.125 717.446,-114.125"/>
</g>
<!-- UserAuth -->
<g id="node11" class="node"><title>UserAuth</title>
<ellipse fill="none" stroke="black" cx="832.974" cy="-90" rx="44.4837" ry="18"/>
<text text-anchor="middle" x="832.974" y="-85.8" font-family="Times,serif" font-size="14.00">UserAuth</text>
</g>
<!-- User&#45;&gt;UserAuth -->
<g id="edge8" class="edge"><title>User&#45;&gt;UserAuth</title>
<path fill="none" stroke="#758944" d="M781.455,-141.088C790.173,-132.612 800.393,-122.676 809.422,-113.898"/>
<ellipse fill="none" stroke="#758944" cx="778.412" cy="-144.046" rx="4.00002" ry="4.00002"/>
<polygon fill="#758944" stroke="#758944" points="809.497,-113.825 819.804,-110.08 813.082,-110.339 816.667,-106.854 816.667,-106.854 816.667,-106.854 813.082,-110.339 813.53,-103.628 809.497,-113.825 809.497,-113.825"/>
</g>
</g>
</svg>
