<?xml version="1.0" encoding="UTF-8" standalone="no"?>
<!DOCTYPE svg PUBLIC "-//W3C//DTD SVG 1.1//EN"
 "http://www.w3.org/Graphics/SVG/1.1/DTD/svg11.dtd">
<!-- Generated by graphviz version 2.38.0 (20140413.2041)
 -->
<!-- Title: models_diagram Pages: 1 -->
<svg width="985pt" height="800pt"
 viewBox="0.00 0.00 984.64 800.00" xmlns="http://www.w3.org/2000/svg" xmlns:xlink="http://www.w3.org/1999/xlink">
<g id="graph0" class="graph" transform="scale(1 1) rotate(0) translate(4 796)">
<title>models_diagram</title>
<polygon fill="none" stroke="none" points="-4,4 -4,-796 980.638,-796 980.638,4 -4,4"/>
<!-- _diagram_info -->
<g id="node1" class="node"><title>_diagram_info</title>
<text text-anchor="start" x="8" y="-742.6" font-family="Times,serif" font-size="13.00">Models diagram</text>
<text text-anchor="start" x="8" y="-729.6" font-family="Times,serif" font-size="13.00">Date: Feb 01 2016 &#45; 19:57</text>
<text text-anchor="start" x="8" y="-716.6" font-family="Times,serif" font-size="13.00">Migration version: 20160131084044</text>
<text text-anchor="start" x="8" y="-703.6" font-family="Times,serif" font-size="13.00">Generated by RailRoady 1.4.2</text>
<text text-anchor="start" x="8" y="-690.6" font-family="Times,serif" font-size="13.00">http://railroady.prestonlee.com</text>
</g>
<!-- ApplicationRecord -->
<g id="node2" class="node"><title>ApplicationRecord</title>
<ellipse fill="none" stroke="black" cx="302.688" cy="-720.5" rx="77.2916" ry="18"/>
<text text-anchor="middle" x="302.688" y="-716.3" font-family="Times,serif" font-size="14.00">ApplicationRecord</text>
</g>
<!-- CommonCode -->
<g id="node3" class="node"><title>CommonCode</title>
<path fill="none" stroke="black" d="M409.9,-663.5C409.9,-663.5 569.476,-663.5 569.476,-663.5 575.476,-663.5 581.476,-669.5 581.476,-675.5 581.476,-675.5 581.476,-765.5 581.476,-765.5 581.476,-771.5 575.476,-777.5 569.476,-777.5 569.476,-777.5 409.9,-777.5 409.9,-777.5 403.9,-777.5 397.9,-771.5 397.9,-765.5 397.9,-765.5 397.9,-675.5 397.9,-675.5 397.9,-669.5 403.9,-663.5 409.9,-663.5"/>
<text text-anchor="middle" x="489.688" y="-762.3" font-family="Times,serif" font-size="14.00">CommonCode</text>
<polyline fill="none" stroke="black" points="397.9,-755.5 581.476,-755.5 "/>
<text text-anchor="start" x="405.9" y="-740.3" font-family="Times,serif" font-size="14.00">common_code_id :INTEGER</text>
<text text-anchor="start" x="405.9" y="-726.3" font-family="Times,serif" font-size="14.00">main_code :varchar</text>
<text text-anchor="start" x="405.9" y="-712.3" font-family="Times,serif" font-size="14.00">detail_id :integer</text>
<text text-anchor="start" x="405.9" y="-698.3" font-family="Times,serif" font-size="14.00">name_kor :varchar</text>
<text text-anchor="start" x="405.9" y="-684.3" font-family="Times,serif" font-size="14.00">created_at :datetime</text>
<text text-anchor="start" x="405.9" y="-670.3" font-family="Times,serif" font-size="14.00">updated_at :datetime</text>
</g>
<!-- Image -->
<g id="node4" class="node"><title>Image</title>
<path fill="none" stroke="black" d="M692.251,-0.5C692.251,-0.5 847.124,-0.5 847.124,-0.5 853.124,-0.5 859.124,-6.5 859.124,-12.5 859.124,-12.5 859.124,-144.5 859.124,-144.5 859.124,-150.5 853.124,-156.5 847.124,-156.5 847.124,-156.5 692.251,-156.5 692.251,-156.5 686.251,-156.5 680.251,-150.5 680.251,-144.5 680.251,-144.5 680.251,-12.5 680.251,-12.5 680.251,-6.5 686.251,-0.5 692.251,-0.5"/>
<text text-anchor="middle" x="769.688" y="-141.3" font-family="Times,serif" font-size="14.00">Image</text>
<polyline fill="none" stroke="black" points="680.251,-134.5 859.124,-134.5 "/>
<text text-anchor="start" x="688.251" y="-119.3" font-family="Times,serif" font-size="14.00">image_updated_at :datetime</text>
<text text-anchor="start" x="688.251" y="-105.3" font-family="Times,serif" font-size="14.00">imageable_type :varchar</text>
<text text-anchor="start" x="688.251" y="-91.3" font-family="Times,serif" font-size="14.00">imageable_id :integer</text>
<text text-anchor="start" x="688.251" y="-77.3" font-family="Times,serif" font-size="14.00">created_at :datetime</text>
<text text-anchor="start" x="688.251" y="-63.3" font-family="Times,serif" font-size="14.00">updated_at :datetime</text>
<text text-anchor="start" x="688.251" y="-49.3" font-family="Times,serif" font-size="14.00">image_file_name :varchar</text>
<text text-anchor="start" x="688.251" y="-35.3" font-family="Times,serif" font-size="14.00">image_content_type :varchar</text>
<text text-anchor="start" x="688.251" y="-21.3" font-family="Times,serif" font-size="14.00">image_file_size :integer</text>
<text text-anchor="start" x="688.251" y="-7.3" font-family="Times,serif" font-size="14.00">id :INTEGER</text>
</g>
<!-- Region -->
<g id="node5" class="node"><title>Region</title>
<path fill="none" stroke="black" d="M800.227,-649.5C800.227,-649.5 913.148,-649.5 913.148,-649.5 919.148,-649.5 925.148,-655.5 925.148,-661.5 925.148,-661.5 925.148,-779.5 925.148,-779.5 925.148,-785.5 919.148,-791.5 913.148,-791.5 913.148,-791.5 800.227,-791.5 800.227,-791.5 794.227,-791.5 788.227,-785.5 788.227,-779.5 788.227,-779.5 788.227,-661.5 788.227,-661.5 788.227,-655.5 794.227,-649.5 800.227,-649.5"/>
<text text-anchor="middle" x="856.688" y="-776.3" font-family="Times,serif" font-size="14.00">Region</text>
<polyline fill="none" stroke="black" points="788.227,-769.5 925.148,-769.5 "/>
<text text-anchor="start" x="796.227" y="-754.3" font-family="Times,serif" font-size="14.00">updated_at :datetime</text>
<text text-anchor="start" x="796.227" y="-740.3" font-family="Times,serif" font-size="14.00">do :varchar</text>
<text text-anchor="start" x="796.227" y="-726.3" font-family="Times,serif" font-size="14.00">gu :varchar</text>
<text text-anchor="start" x="796.227" y="-712.3" font-family="Times,serif" font-size="14.00">dong :varchar</text>
<text text-anchor="start" x="796.227" y="-698.3" font-family="Times,serif" font-size="14.00">longitude :float</text>
<text text-anchor="start" x="796.227" y="-684.3" font-family="Times,serif" font-size="14.00">latitude :float</text>
<text text-anchor="start" x="796.227" y="-670.3" font-family="Times,serif" font-size="14.00">created_at :datetime</text>
<text text-anchor="start" x="796.227" y="-656.3" font-family="Times,serif" font-size="14.00">region_id :INTEGER</text>
</g>
<!-- Review -->
<g id="node6" class="node"><title>Review</title>
<path fill="none" stroke="black" d="M798.065,-193.5C798.065,-193.5 913.31,-193.5 913.31,-193.5 919.31,-193.5 925.31,-199.5 925.31,-205.5 925.31,-205.5 925.31,-309.5 925.31,-309.5 925.31,-315.5 919.31,-321.5 913.31,-321.5 913.31,-321.5 798.065,-321.5 798.065,-321.5 792.065,-321.5 786.065,-315.5 786.065,-309.5 786.065,-309.5 786.065,-205.5 786.065,-205.5 786.065,-199.5 792.065,-193.5 798.065,-193.5"/>
<text text-anchor="middle" x="855.688" y="-306.3" font-family="Times,serif" font-size="14.00">Review</text>
<polyline fill="none" stroke="black" points="786.065,-299.5 925.31,-299.5 "/>
<text text-anchor="start" x="794.065" y="-284.3" font-family="Times,serif" font-size="14.00">detail :text</text>
<text text-anchor="start" x="794.065" y="-270.3" font-family="Times,serif" font-size="14.00">store_id :integer</text>
<text text-anchor="start" x="794.065" y="-256.3" font-family="Times,serif" font-size="14.00">user_id :integer</text>
<text text-anchor="start" x="794.065" y="-242.3" font-family="Times,serif" font-size="14.00">review_id :INTEGER</text>
<text text-anchor="start" x="794.065" y="-228.3" font-family="Times,serif" font-size="14.00">grade :float</text>
<text text-anchor="start" x="794.065" y="-214.3" font-family="Times,serif" font-size="14.00">created_at :datetime</text>
<text text-anchor="start" x="794.065" y="-200.3" font-family="Times,serif" font-size="14.00">updated_at :datetime</text>
</g>
<!-- Review&#45;&gt;Image -->
<g id="edge1" class="edge"><title>Review&#45;&gt;Image</title>
<path fill="none" stroke="#555077" d="M821.352,-185.833C818.15,-179.243 814.881,-172.515 811.621,-165.804"/>
<ellipse fill="none" stroke="#555077" cx="823.135" cy="-189.501" rx="4.00002" ry="4.00002"/>
<polygon fill="#555077" stroke="#555077" points="811.557,-165.672 811.234,-154.711 809.371,-161.174 807.186,-156.677 807.186,-156.677 807.186,-156.677 809.371,-161.174 803.139,-158.644 811.557,-165.672 811.557,-165.672"/>
</g>
<!-- Store -->
<g id="node7" class="node"><title>Store</title>
<path fill="none" stroke="black" d="M622.013,-358.5C622.013,-358.5 747.362,-358.5 747.362,-358.5 753.362,-358.5 759.362,-364.5 759.362,-370.5 759.362,-370.5 759.362,-600.5 759.362,-600.5 759.362,-606.5 753.362,-612.5 747.362,-612.5 747.362,-612.5 622.013,-612.5 622.013,-612.5 616.013,-612.5 610.013,-606.5 610.013,-600.5 610.013,-600.5 610.013,-370.5 610.013,-370.5 610.013,-364.5 616.013,-358.5 622.013,-358.5"/>
<text text-anchor="middle" x="684.688" y="-597.3" font-family="Times,serif" font-size="14.00">Store</text>
<polyline fill="none" stroke="black" points="610.013,-590.5 759.362,-590.5 "/>
<text text-anchor="start" x="618.013" y="-575.3" font-family="Times,serif" font-size="14.00">updated_at :datetime</text>
<text text-anchor="start" x="618.013" y="-561.3" font-family="Times,serif" font-size="14.00">store_owner_id :integer</text>
<text text-anchor="start" x="618.013" y="-547.3" font-family="Times,serif" font-size="14.00">category_id :integer</text>
<text text-anchor="start" x="618.013" y="-533.3" font-family="Times,serif" font-size="14.00">name :varchar</text>
<text text-anchor="start" x="618.013" y="-519.3" font-family="Times,serif" font-size="14.00">address :varchar</text>
<text text-anchor="start" x="618.013" y="-505.3" font-family="Times,serif" font-size="14.00">longitude :float</text>
<text text-anchor="start" x="618.013" y="-491.3" font-family="Times,serif" font-size="14.00">latitude :float</text>
<text text-anchor="start" x="618.013" y="-477.3" font-family="Times,serif" font-size="14.00">phone :varchar</text>
<text text-anchor="start" x="618.013" y="-463.3" font-family="Times,serif" font-size="14.00">detail :text</text>
<text text-anchor="start" x="618.013" y="-449.3" font-family="Times,serif" font-size="14.00">start_time :datetime</text>
<text text-anchor="start" x="618.013" y="-435.3" font-family="Times,serif" font-size="14.00">end_time :datetime</text>
<text text-anchor="start" x="618.013" y="-421.3" font-family="Times,serif" font-size="14.00">holiday :varchar</text>
<text text-anchor="start" x="618.013" y="-407.3" font-family="Times,serif" font-size="14.00">reviews_count :integer</text>
<text text-anchor="start" x="618.013" y="-393.3" font-family="Times,serif" font-size="14.00">grade_total :float</text>
<text text-anchor="start" x="618.013" y="-379.3" font-family="Times,serif" font-size="14.00">created_at :datetime</text>
<text text-anchor="start" x="618.013" y="-365.3" font-family="Times,serif" font-size="14.00">store_id :INTEGER</text>
</g>
<!-- Store&#45;&gt;Image -->
<g id="edge2" class="edge"><title>Store&#45;&gt;Image</title>
<path fill="none" stroke="#f977c0" d="M606.264,-367.85C579.492,-312.778 562.966,-247.367 592.688,-193 609.98,-161.369 640.269,-137.253 670.955,-119.56"/>
<ellipse fill="none" stroke="#f977c0" cx="608.144" cy="-371.624" rx="4.00002" ry="4.00002"/>
<polygon fill="#f977c0" stroke="#f977c0" points="671.303,-119.367 682.229,-118.44 675.672,-116.937 680.042,-114.507 680.042,-114.507 680.042,-114.507 675.672,-116.937 677.855,-110.574 671.303,-119.367 671.303,-119.367"/>
</g>
<!-- Store&#45;&gt;Review -->
<g id="edge4" class="edge"><title>Store&#45;&gt;Review</title>
<path fill="none" stroke="#b6d9ba" d="M764.273,-379.317C776.973,-362.532 789.848,-345.516 801.77,-329.76"/>
<ellipse fill="none" stroke="#b6d9ba" cx="761.856" cy="-382.512" rx="4.00002" ry="4.00002"/>
<polygon fill="#b6d9ba" stroke="#b6d9ba" points="801.877,-329.618 811.5,-324.358 804.894,-325.63 807.911,-321.643 807.911,-321.643 807.911,-321.643 804.894,-325.63 804.323,-318.928 801.877,-329.618 801.877,-329.618"/>
</g>
<!-- StoreMenu -->
<g id="node8" class="node"><title>StoreMenu</title>
<path fill="none" stroke="black" d="M613.451,-214.5C613.451,-214.5 755.924,-214.5 755.924,-214.5 761.924,-214.5 767.924,-220.5 767.924,-226.5 767.924,-226.5 767.924,-288.5 767.924,-288.5 767.924,-294.5 761.924,-300.5 755.924,-300.5 755.924,-300.5 613.451,-300.5 613.451,-300.5 607.451,-300.5 601.451,-294.5 601.451,-288.5 601.451,-288.5 601.451,-226.5 601.451,-226.5 601.451,-220.5 607.451,-214.5 613.451,-214.5"/>
<text text-anchor="middle" x="684.688" y="-285.3" font-family="Times,serif" font-size="14.00">StoreMenu</text>
<polyline fill="none" stroke="black" points="601.451,-278.5 767.924,-278.5 "/>
<text text-anchor="start" x="609.451" y="-263.3" font-family="Times,serif" font-size="14.00">store_menu_id :INTEGER</text>
<text text-anchor="start" x="609.451" y="-249.3" font-family="Times,serif" font-size="14.00">store_id :integer</text>
<text text-anchor="start" x="609.451" y="-235.3" font-family="Times,serif" font-size="14.00">created_at :datetime</text>
<text text-anchor="start" x="609.451" y="-221.3" font-family="Times,serif" font-size="14.00">updated_at :datetime</text>
</g>
<!-- Store&#45;&gt;StoreMenu -->
<g id="edge3" class="edge"><title>Store&#45;&gt;StoreMenu</title>
<path fill="none" stroke="#cc0244" d="M684.688,-350.025C684.688,-336.197 684.688,-322.815 684.688,-310.748"/>
<ellipse fill="none" stroke="#cc0244" cx="684.688" cy="-354.285" rx="4" ry="4"/>
<polygon fill="#cc0244" stroke="#cc0244" points="684.688,-310.504 689.188,-300.504 684.688,-305.504 684.688,-300.504 684.688,-300.504 684.688,-300.504 684.688,-305.504 680.188,-300.504 684.688,-310.504 684.688,-310.504"/>
</g>
<!-- StoreMenu&#45;&gt;Image -->
<g id="edge5" class="edge"><title>StoreMenu&#45;&gt;Image</title>
<path fill="none" stroke="#caa533" d="M708.636,-206.63C715.004,-193.37 722.064,-178.67 729.055,-164.111"/>
<ellipse fill="none" stroke="#caa533" cx="706.779" cy="-210.498" rx="4.00002" ry="4.00002"/>
<ellipse fill="#caa533" stroke="#caa533" cx="730.97" cy="-160.124" rx="4.00002" ry="4.00002"/>
</g>
<!-- StoreOwner -->
<g id="node9" class="node"><title>StoreOwner</title>
<path fill="none" stroke="black" d="M611.51,-656.5C611.51,-656.5 757.865,-656.5 757.865,-656.5 763.865,-656.5 769.865,-662.5 769.865,-668.5 769.865,-668.5 769.865,-772.5 769.865,-772.5 769.865,-778.5 763.865,-784.5 757.865,-784.5 757.865,-784.5 611.51,-784.5 611.51,-784.5 605.51,-784.5 599.51,-778.5 599.51,-772.5 599.51,-772.5 599.51,-668.5 599.51,-668.5 599.51,-662.5 605.51,-656.5 611.51,-656.5"/>
<text text-anchor="middle" x="684.688" y="-769.3" font-family="Times,serif" font-size="14.00">StoreOwner</text>
<polyline fill="none" stroke="black" points="599.51,-762.5 769.865,-762.5 "/>
<text text-anchor="start" x="607.51" y="-747.3" font-family="Times,serif" font-size="14.00">name :varchar</text>
<text text-anchor="start" x="607.51" y="-733.3" font-family="Times,serif" font-size="14.00">email :varchar</text>
<text text-anchor="start" x="607.51" y="-719.3" font-family="Times,serif" font-size="14.00">password :varchar</text>
<text text-anchor="start" x="607.51" y="-705.3" font-family="Times,serif" font-size="14.00">store_owner_id :INTEGER</text>
<text text-anchor="start" x="607.51" y="-691.3" font-family="Times,serif" font-size="14.00">phone :varchar</text>
<text text-anchor="start" x="607.51" y="-677.3" font-family="Times,serif" font-size="14.00">created_at :datetime</text>
<text text-anchor="start" x="607.51" y="-663.3" font-family="Times,serif" font-size="14.00">updated_at :datetime</text>
</g>
<!-- StoreOwner&#45;&gt;Store -->
<g id="edge6" class="edge"><title>StoreOwner&#45;&gt;Store</title>
<path fill="none" stroke="#89bb14" d="M684.688,-648.336C684.688,-640.205 684.688,-631.725 684.688,-623.093"/>
<ellipse fill="none" stroke="#89bb14" cx="684.688" cy="-652.447" rx="4" ry="4"/>
<polygon fill="#89bb14" stroke="#89bb14" points="684.688,-622.902 689.188,-612.902 684.688,-617.902 684.688,-612.902 684.688,-612.902 684.688,-612.902 684.688,-617.902 680.188,-612.902 684.688,-622.902 684.688,-622.902"/>
</g>
<!-- User -->
<g id="node10" class="node"><title>User</title>
<path fill="none" stroke="black" d="M844.738,-407.5C844.738,-407.5 964.638,-407.5 964.638,-407.5 970.638,-407.5 976.638,-413.5 976.638,-419.5 976.638,-419.5 976.638,-551.5 976.638,-551.5 976.638,-557.5 970.638,-563.5 964.638,-563.5 964.638,-563.5 844.738,-563.5 844.738,-563.5 838.738,-563.5 832.738,-557.5 832.738,-551.5 832.738,-551.5 832.738,-419.5 832.738,-419.5 832.738,-413.5 838.738,-407.5 844.738,-407.5"/>
<text text-anchor="middle" x="904.688" y="-548.3" font-family="Times,serif" font-size="14.00">User</text>
<polyline fill="none" stroke="black" points="832.738,-541.5 976.638,-541.5 "/>
<text text-anchor="start" x="840.738" y="-526.3" font-family="Times,serif" font-size="14.00">updated_at :datetime</text>
<text text-anchor="start" x="840.738" y="-512.3" font-family="Times,serif" font-size="14.00">email :varchar</text>
<text text-anchor="start" x="840.738" y="-498.3" font-family="Times,serif" font-size="14.00">password :varchar</text>
<text text-anchor="start" x="840.738" y="-484.3" font-family="Times,serif" font-size="14.00">nickname :varchar</text>
<text text-anchor="start" x="840.738" y="-470.3" font-family="Times,serif" font-size="14.00">phone :varchar</text>
<text text-anchor="start" x="840.738" y="-456.3" font-family="Times,serif" font-size="14.00">gender :integer</text>
<text text-anchor="start" x="840.738" y="-442.3" font-family="Times,serif" font-size="14.00">reviews_count :integer</text>
<text text-anchor="start" x="840.738" y="-428.3" font-family="Times,serif" font-size="14.00">created_at :datetime</text>
<text text-anchor="start" x="840.738" y="-414.3" font-family="Times,serif" font-size="14.00">user_id :INTEGER</text>
</g>
<!-- User&#45;&gt;Image -->
<g id="edge7" class="edge"><title>User&#45;&gt;Image</title>
<path fill="none" stroke="#b0e137" d="M937.542,-399.587C955.546,-338.716 968.125,-256.585 934.688,-193 919.546,-164.205 893.429,-141.297 866.384,-123.819"/>
<ellipse fill="none" stroke="#b0e137" cx="936.369" cy="-403.45" rx="4.00001" ry="4.00001"/>
<ellipse fill="#b0e137" stroke="#b0e137" cx="862.881" cy="-121.619" rx="4.00002" ry="4.00002"/>
</g>
<!-- User&#45;&gt;Review -->
<g id="edge8" class="edge"><title>User&#45;&gt;Review</title>
<path fill="none" stroke="#6834b1" d="M886.245,-399.436C881.425,-377.205 876.271,-353.434 871.595,-331.869"/>
<ellipse fill="none" stroke="#6834b1" cx="887.114" cy="-403.447" rx="4.00001" ry="4.00001"/>
<polygon fill="#6834b1" stroke="#6834b1" points="871.532,-331.576 873.811,-320.85 870.472,-326.69 869.413,-321.803 869.413,-321.803 869.413,-321.803 870.472,-326.69 865.015,-322.757 871.532,-331.576 871.532,-331.576"/>
</g>
</g>
</svg>
