<?xml version="1.0" encoding="UTF-8" standalone="no"?>
<!DOCTYPE svg PUBLIC "-//W3C//DTD SVG 1.1//EN"
 "http://www.w3.org/Graphics/SVG/1.1/DTD/svg11.dtd">
<!-- Generated by graphviz version 2.38.0 (20140413.2041)
 -->
<!-- Title: models_diagram Pages: 1 -->
<svg width="765pt" height="297pt"
 viewBox="0.00 0.00 764.69 297.00" xmlns="http://www.w3.org/2000/svg" xmlns:xlink="http://www.w3.org/1999/xlink">
<g id="graph0" class="graph" transform="scale(1 1) rotate(0) translate(4 293)">
<title>models_diagram</title>
<polygon fill="none" stroke="none" points="-4,4 -4,-293 760.688,-293 760.688,4 -4,4"/>
<!-- _diagram_info -->
<g id="node1" class="node"><title>_diagram_info</title>
<text text-anchor="start" x="8" y="-274.6" font-family="Times,serif" font-size="13.00">Models diagram</text>
<text text-anchor="start" x="8" y="-261.6" font-family="Times,serif" font-size="13.00">Date: Feb 01 2016 &#45; 19:57</text>
<text text-anchor="start" x="8" y="-248.6" font-family="Times,serif" font-size="13.00">Migration version: 20160131084044</text>
<text text-anchor="start" x="8" y="-235.6" font-family="Times,serif" font-size="13.00">Generated by RailRoady 1.4.2</text>
<text text-anchor="start" x="8" y="-222.6" font-family="Times,serif" font-size="13.00">http://railroady.prestonlee.com</text>
</g>
<!-- ApplicationRecord -->
<g id="node2" class="node"><title>ApplicationRecord</title>
<ellipse fill="none" stroke="black" cx="302.688" cy="-252.5" rx="77.2916" ry="18"/>
<text text-anchor="middle" x="302.688" y="-248.3" font-family="Times,serif" font-size="14.00">ApplicationRecord</text>
</g>
<!-- CommonCode -->
<g id="node3" class="node"><title>CommonCode</title>
<ellipse fill="none" stroke="black" cx="459.688" cy="-252.5" rx="61.8909" ry="18"/>
<text text-anchor="middle" x="459.688" y="-248.3" font-family="Times,serif" font-size="14.00">CommonCode</text>
</g>
<!-- Image -->
<g id="node4" class="node"><title>Image</title>
<ellipse fill="none" stroke="black" cx="644.688" cy="-18" rx="32.4063" ry="18"/>
<text text-anchor="middle" x="644.688" y="-13.8" font-family="Times,serif" font-size="14.00">Image</text>
</g>
<!-- Region -->
<g id="node5" class="node"><title>Region</title>
<ellipse fill="none" stroke="black" cx="698.688" cy="-252.5" rx="35.806" ry="18"/>
<text text-anchor="middle" x="698.688" y="-248.3" font-family="Times,serif" font-size="14.00">Region</text>
</g>
<!-- Review -->
<g id="node6" class="node"><title>Review</title>
<ellipse fill="none" stroke="black" cx="697.688" cy="-90" rx="37.2421" ry="18"/>
<text text-anchor="middle" x="697.688" y="-85.8" font-family="Times,serif" font-size="14.00">Review</text>
</g>
<!-- Review&#45;&gt;Image -->
<g id="edge1" class="edge"><title>Review&#45;&gt;Image</title>
<path fill="none" stroke="#f7bd3a" d="M680.54,-66.3523C675.004,-59.0401 668.843,-50.9028 663.212,-43.4653"/>
<ellipse fill="none" stroke="#f7bd3a" cx="682.981" cy="-69.5756" rx="4.00002" ry="4.00002"/>
<polygon fill="#f7bd3a" stroke="#f7bd3a" points="662.95,-43.1199 660.501,-32.4309 659.932,-39.1336 656.914,-35.1473 656.914,-35.1473 656.914,-35.1473 659.932,-39.1336 653.326,-37.8637 662.95,-43.1199 662.95,-43.1199"/>
</g>
<!-- Store -->
<g id="node7" class="node"><title>Store</title>
<ellipse fill="none" stroke="black" cx="592.688" cy="-162" rx="28.5497" ry="18"/>
<text text-anchor="middle" x="592.688" y="-157.8" font-family="Times,serif" font-size="14.00">Store</text>
</g>
<!-- Store&#45;&gt;Image -->
<g id="edge2" class="edge"><title>Store&#45;&gt;Image</title>
<path fill="none" stroke="#fd5521" d="M565.994,-144.269C554.038,-135.166 541.187,-122.744 534.688,-108 528.234,-93.3595 526.177,-85.5484 534.688,-72 549.951,-47.704 579.824,-34.2837 604.591,-27.0306"/>
<ellipse fill="none" stroke="#fd5521" cx="569.259" cy="-146.633" rx="4.00002" ry="4.00002"/>
<polygon fill="#fd5521" stroke="#fd5521" points="604.828,-26.9668 615.654,-28.7173 609.657,-25.6691 614.486,-24.3715 614.486,-24.3715 614.486,-24.3715 609.657,-25.6691 613.318,-20.0256 604.828,-26.9668 604.828,-26.9668"/>
</g>
<!-- Store&#45;&gt;Review -->
<g id="edge4" class="edge"><title>Store&#45;&gt;Review</title>
<path fill="none" stroke="#c48020" d="M618.749,-143.626C633.705,-133.655 652.534,-121.102 668.051,-110.758"/>
<ellipse fill="none" stroke="#c48020" cx="615.275" cy="-145.942" rx="4.00002" ry="4.00002"/>
<polygon fill="#c48020" stroke="#c48020" points="668.43,-110.505 679.247,-108.702 672.591,-107.731 676.751,-104.958 676.751,-104.958 676.751,-104.958 672.591,-107.731 674.255,-101.214 668.43,-110.505 668.43,-110.505"/>
</g>
<!-- StoreMenu -->
<g id="node8" class="node"><title>StoreMenu</title>
<ellipse fill="none" stroke="black" cx="592.688" cy="-90" rx="49.3119" ry="18"/>
<text text-anchor="middle" x="592.688" y="-85.8" font-family="Times,serif" font-size="14.00">StoreMenu</text>
</g>
<!-- Store&#45;&gt;StoreMenu -->
<g id="edge3" class="edge"><title>Store&#45;&gt;StoreMenu</title>
<path fill="none" stroke="#deaaae" d="M592.688,-135.64C592.688,-130.063 592.688,-124.132 592.688,-118.476"/>
<ellipse fill="none" stroke="#deaaae" cx="592.688" cy="-139.697" rx="4" ry="4"/>
<polygon fill="#deaaae" stroke="#deaaae" points="592.688,-118.104 597.188,-108.104 592.688,-113.104 592.688,-108.104 592.688,-108.104 592.688,-108.104 592.688,-113.104 588.188,-108.104 592.688,-118.104 592.688,-118.104"/>
</g>
<!-- StoreMenu&#45;&gt;Image -->
<g id="edge5" class="edge"><title>StoreMenu&#45;&gt;Image</title>
<path fill="none" stroke="#43f4b6" d="M609.987,-65.7127C615.722,-57.9927 622.095,-49.4133 627.799,-41.7353"/>
<ellipse fill="none" stroke="#43f4b6" cx="607.396" cy="-69.2" rx="4.00002" ry="4.00002"/>
<ellipse fill="#43f4b6" stroke="#43f4b6" cx="630.426" cy="-38.1991" rx="4.00002" ry="4.00002"/>
</g>
<!-- StoreOwner -->
<g id="node9" class="node"><title>StoreOwner</title>
<ellipse fill="none" stroke="black" cx="592.688" cy="-252.5" rx="52.6779" ry="18"/>
<text text-anchor="middle" x="592.688" y="-248.3" font-family="Times,serif" font-size="14.00">StoreOwner</text>
</g>
<!-- StoreOwner&#45;&gt;Store -->
<g id="edge6" class="edge"><title>StoreOwner&#45;&gt;Store</title>
<path fill="none" stroke="#093bf2" d="M592.688,-226.189C592.688,-214.971 592.688,-201.752 592.688,-190.311"/>
<ellipse fill="none" stroke="#093bf2" cx="592.688" cy="-230.436" rx="4" ry="4"/>
<polygon fill="#093bf2" stroke="#093bf2" points="592.688,-190.011 597.188,-180.011 592.688,-185.011 592.688,-180.011 592.688,-180.011 592.688,-180.011 592.688,-185.011 588.188,-180.011 592.688,-190.011 592.688,-190.011"/>
</g>
<!-- User -->
<g id="node10" class="node"><title>User</title>
<ellipse fill="none" stroke="black" cx="729.688" cy="-162" rx="27" ry="18"/>
<text text-anchor="middle" x="729.688" y="-157.8" font-family="Times,serif" font-size="14.00">User</text>
</g>
<!-- User&#45;&gt;Image -->
<g id="edge7" class="edge"><title>User&#45;&gt;Image</title>
<path fill="none" stroke="#0e16cf" d="M741.465,-137.316C749.075,-118.379 755.555,-91.8135 743.688,-72 730.247,-49.5582 703.698,-36.0814 681.475,-28.337"/>
<ellipse fill="none" stroke="#0e16cf" cx="739.881" cy="-140.998" rx="4.00002" ry="4.00002"/>
<ellipse fill="#0e16cf" stroke="#0e16cf" cx="677.625" cy="-27.0763" rx="4.00001" ry="4.00001"/>
</g>
<!-- User&#45;&gt;Review -->
<g id="edge8" class="edge"><title>User&#45;&gt;Review</title>
<path fill="none" stroke="#f273a7" d="M718.745,-137.062C715.805,-130.632 712.612,-123.647 709.622,-117.106"/>
<ellipse fill="none" stroke="#f273a7" cx="720.441" cy="-140.773" rx="4.00002" ry="4.00002"/>
<polygon fill="#f273a7" stroke="#f273a7" points="709.597,-117.051 709.532,-106.085 707.518,-112.504 705.439,-107.956 705.439,-107.956 705.439,-107.956 707.518,-112.504 701.347,-109.827 709.597,-117.051 709.597,-117.051"/>
</g>
</g>
</svg>
